<svg width="98" height="21" viewBox="0 0 98 21" fill="none" xmlns="http://www.w3.org/2000/svg">
<path d="M12.3856 7.70959L12.0489 8.04628L11.5777 7.57512C11.5087 7.50606 11.415 7.46725 11.3173 7.46725C11.2197 7.46725 11.126 7.50606 11.0569 7.57512C10.9878 7.64419 10.949 7.73786 10.949 7.83554C10.949 7.93321 10.9878 8.02688 11.0569 8.09594L11.5281 8.56746L11.24 8.85555L10.7685 8.38403C10.6994 8.31497 10.6057 8.27616 10.5081 8.27616C10.4104 8.27616 10.3167 8.31497 10.2477 8.38403C10.1786 8.4531 10.1398 8.54678 10.1398 8.64445C10.1398 8.74213 10.1786 8.83579 10.2477 8.90486L10.7188 9.37637L10.4307 9.66446L9.9592 9.19295C9.89013 9.12388 9.79648 9.08509 9.69881 9.08509C9.60113 9.08509 9.50746 9.12388 9.43839 9.19295C9.36932 9.26201 9.33051 9.35569 9.33051 9.45336C9.33051 9.55104 9.36932 9.6447 9.43839 9.71377L9.90955 10.1853L9.62146 10.4734L9.1503 10.0019C9.11612 9.96759 9.07554 9.9404 9.03085 9.92181C8.98617 9.90323 8.93826 9.89363 8.88986 9.89357C8.84146 9.8935 8.79352 9.90297 8.74878 9.92142C8.70405 9.93988 8.66339 9.96698 8.62912 10.0012C8.59485 10.0353 8.56765 10.0759 8.54906 10.1206C8.53048 10.1653 8.52089 10.2132 8.52083 10.2616C8.52076 10.31 8.53021 10.3579 8.54867 10.4027C8.56713 10.4474 8.59423 10.4881 8.62841 10.5223L9.09956 10.9938L8.55283 11.5406L6.61783 9.60556L10.4495 5.77387C10.4863 5.73888 10.5352 5.71937 10.5859 5.71937C10.6367 5.71937 10.6855 5.73888 10.7223 5.77387L12.3845 7.43605C12.4206 7.47228 12.4408 7.52133 12.4408 7.57246C12.4408 7.62359 12.4206 7.67265 12.3845 7.70888L12.3856 7.70959ZM12.7759 6.78466L12.9859 6.57462C13.094 6.46638 13.1548 6.31963 13.1548 6.16662C13.1548 6.01361 13.094 5.86686 12.9859 5.75862L12.85 5.62274L15.0937 3.37906C15.1146 3.35863 15.1312 3.33424 15.1426 3.30732C15.154 3.28041 15.16 3.2515 15.1602 3.22226C15.1603 3.19303 15.1547 3.16406 15.1436 3.13702C15.1325 3.10998 15.1161 3.08541 15.0954 3.06474C15.0748 3.04407 15.0502 3.0277 15.0232 3.01659C14.9961 3.00548 14.9671 2.99984 14.9379 3C14.9087 3.00017 14.8798 3.00613 14.8528 3.01754C14.8259 3.02896 14.8015 3.04559 14.7811 3.06649L12.5374 5.31016L12.4016 5.17428C12.2933 5.06613 12.1466 5.00538 11.9935 5.00538C11.8405 5.00538 11.6938 5.06613 11.5856 5.17428L11.3759 5.38396L11.2446 5.25269C11.0704 5.07885 10.8343 4.98121 10.5882 4.98121C10.3421 4.98121 10.1061 5.07885 9.93189 5.25269L6.09276 9.09041C5.96702 8.99196 5.8095 8.94311 5.65012 8.95311C5.49074 8.96312 5.34058 9.0313 5.22814 9.1447C5.10484 9.26817 5.03559 9.43551 5.03559 9.61C5.03559 9.78449 5.10484 9.95184 5.22814 10.0753L6.01965 10.8668L1.15661 15.7299L0.628693 15.2023C0.559627 15.1333 0.465951 15.0945 0.368277 15.0945C0.270603 15.0945 0.176927 15.1333 0.107861 15.2023C0.0387949 15.2714 0 15.3651 0 15.4627C0 15.5604 0.0387949 15.6541 0.107861 15.7231L2.43667 18.0523C2.47086 18.0865 2.51147 18.1136 2.55615 18.1322C2.60084 18.1507 2.64872 18.1602 2.69708 18.1602C2.74545 18.1602 2.79335 18.1507 2.83803 18.1322C2.88271 18.1136 2.9233 18.0865 2.9575 18.0523C2.9917 18.0181 3.01883 17.9775 3.03734 17.9328C3.05585 17.8882 3.06536 17.8403 3.06536 17.7919C3.06536 17.7435 3.05585 17.6957 3.03734 17.651C3.01883 17.6063 2.9917 17.5657 2.9575 17.5315L2.42993 17.0039L7.293 12.1409L8.08451 12.9324C8.20225 13.0511 8.36085 13.1204 8.52793 13.1261C8.69501 13.1319 8.85799 13.0737 8.9836 12.9633C9.10922 12.853 9.18802 12.6989 9.20389 12.5325C9.21977 12.3661 9.17154 12.1999 9.06905 12.0678L11.4997 9.63715L12.3079 8.82894L12.9046 8.23218C13.0787 8.05773 13.1764 7.82137 13.1764 7.57495C13.1764 7.32853 13.0787 7.09216 12.9046 6.9177L12.7734 6.78643L12.7759 6.78466Z" fill="#133C55"/>
<path d="M12.994 11.0308C12.9678 10.3907 12.8508 9.75758 12.6466 9.15039L11.4798 10.4074C11.5355 10.6111 11.569 10.8202 11.5798 11.0311C11.5784 12.268 11.0864 13.4539 10.2118 14.3285C9.33714 15.2032 8.15129 15.6951 6.91437 15.6965C6.18826 15.6969 5.46967 15.5495 4.80233 15.2634L3.77344 16.3249C4.73885 16.8421 5.81735 17.1122 6.9126 17.1111C8.52489 17.1098 10.0708 16.4688 11.211 15.3288C12.3511 14.1888 12.9924 12.6431 12.994 11.0308Z" fill="#133C55"/>
<path d="M1.86475 14.4144L2.87766 13.3675C2.46578 12.6587 2.24808 11.8538 2.24652 11.034C2.24496 10.2142 2.4596 9.40856 2.86878 8.69821C3.27797 7.98786 3.86723 7.39796 4.57714 6.98802C5.28706 6.57807 6.09252 6.36258 6.91229 6.36326C7.28567 6.37643 7.65705 6.42393 8.02172 6.50518L9.18222 5.37447C8.45484 5.10526 7.6871 4.96131 6.9116 4.94873C5.80973 4.94823 4.72844 5.24733 3.78347 5.81403C2.83849 6.38074 2.06539 7.19371 1.54689 8.16596C1.02838 9.13822 0.783982 10.2332 0.839848 11.3336C0.895714 12.4341 1.24973 13.4986 1.86404 14.4134L1.86475 14.4144Z" fill="#133C55"/>
<path d="M23.7809 12.822C23.8294 12.8211 23.8776 12.8305 23.9222 12.8497C23.9668 12.8688 24.0068 12.8973 24.0395 12.9331L24.7732 13.7159C24.4178 14.1712 23.955 14.5312 23.4262 14.7637C22.8203 15.0155 22.1683 15.1373 21.5123 15.1212C20.8935 15.131 20.2791 15.0146 19.7066 14.7793C19.1896 14.5631 18.7251 14.2384 18.3446 13.827C17.9628 13.4076 17.6692 12.9157 17.4814 12.3805C17.1421 11.3829 17.0878 10.3103 17.3246 9.28344C17.4155 8.89755 17.5576 8.52553 17.747 8.17722C17.9286 7.84481 18.1535 7.53798 18.4158 7.2648C18.6768 6.99316 18.9746 6.75947 19.3005 6.57052C19.6373 6.37605 19.9992 6.22868 20.376 6.13253C20.782 6.02975 21.1994 5.97901 21.6182 5.98154C21.9315 5.9801 22.2443 6.00896 22.552 6.06773C22.8333 6.12168 23.1088 6.20228 23.3748 6.30843C23.6225 6.40741 23.8591 6.53231 24.0806 6.68104C24.2894 6.8214 24.4843 6.98143 24.6627 7.15893L24.0401 8.00943C24.0014 8.06457 23.9535 8.11253 23.8983 8.15118C23.8286 8.19585 23.7467 8.2175 23.664 8.21308C23.5561 8.20998 23.4517 8.17338 23.3655 8.10836C23.2648 8.03854 23.1416 7.96141 22.9958 7.87693C22.8221 7.77964 22.6382 7.70202 22.4473 7.64551C22.1758 7.56886 21.8944 7.53355 21.6124 7.54079C21.259 7.53659 20.9085 7.60573 20.5831 7.74386C20.2742 7.87701 19.9993 8.07813 19.7789 8.33226C19.5437 8.60947 19.3666 8.93118 19.2582 9.27823C19.1291 9.69094 19.0666 10.1216 19.0731 10.554C19.066 10.9906 19.1337 11.4252 19.2733 11.839C19.3918 12.1894 19.5782 12.5129 19.8218 12.7913C20.0464 13.0448 20.3241 13.2457 20.6352 13.3797C20.9497 13.5141 21.2884 13.5823 21.6304 13.5799C21.8208 13.5811 22.0111 13.5708 22.2002 13.5492C22.3616 13.5307 22.5205 13.4956 22.6747 13.4445C22.8189 13.3962 22.9575 13.3321 23.0878 13.2536C23.2275 13.1679 23.3587 13.0689 23.4795 12.958C23.5231 12.9219 23.5707 12.8909 23.6212 12.8654C23.6703 12.8385 23.725 12.8236 23.7809 12.822Z" fill="#133C55"/>
<path d="M28.9081 15.0226H27.0469V6.07959H28.9081V15.0226Z" fill="#133C55"/>
<path d="M39.8433 6.07914L36.244 15.0221H34.5661L30.9668 6.07914H32.4584C32.5979 6.07342 32.7355 6.11412 32.8495 6.19487C32.9497 6.27018 33.0275 6.3714 33.0745 6.48763L35.0099 11.6404C35.0835 11.8332 35.1564 12.0438 35.2286 12.2722C35.3007 12.5005 35.3674 12.7398 35.4288 12.9902C35.482 12.7395 35.5398 12.5001 35.6023 12.2722C35.6648 12.0442 35.7337 11.8336 35.8089 11.6404L37.7321 6.48763C37.7794 6.37669 37.8547 6.27997 37.9508 6.20701C38.0626 6.12051 38.2012 6.07589 38.3424 6.08089L39.8433 6.07914Z" fill="#133C55"/>
<path d="M48.9986 15.0218H47.5626C47.4228 15.0277 47.2851 14.987 47.1709 14.9061C47.0706 14.8309 46.9927 14.7297 46.9458 14.6134L46.3418 12.906H42.7795L42.1755 14.6134C42.1286 14.7237 42.0543 14.8203 41.9597 14.894C41.8493 14.9807 41.7117 15.0254 41.5714 15.0201H40.125L43.6196 6.07715H45.5115L48.9986 15.0218ZM45.8922 11.6256L44.9248 8.88901C44.8674 8.74514 44.8068 8.57657 44.7432 8.38333C44.6795 8.19008 44.619 7.98064 44.5615 7.755C44.5041 7.98643 44.4435 8.19857 44.3798 8.39143C44.3162 8.58429 44.2556 8.75381 44.1982 8.89999L43.2366 11.6239L45.8922 11.6256Z" fill="#133C55"/>
<path d="M60.5874 5.144C61.5301 5.144 62.3701 5.35867 63.1074 5.788C63.8447 6.208 64.4141 6.796 64.8154 7.552C65.2261 8.29867 65.4314 9.15267 65.4314 10.114C65.4314 11.0753 65.2261 11.934 64.8154 12.69C64.4141 13.4367 63.8447 14.0247 63.1074 14.454C62.3701 14.874 61.5301 15.084 60.5874 15.084C59.6354 15.084 58.7907 14.874 58.0534 14.454C57.3161 14.0247 56.7421 13.4367 56.3314 12.69C55.9207 11.934 55.7154 11.0753 55.7154 10.114C55.7154 9.15267 55.9207 8.29867 56.3314 7.552C56.7421 6.796 57.3161 6.208 58.0534 5.788C58.7907 5.35867 59.6354 5.144 60.5874 5.144ZM60.5874 5.704C59.7194 5.704 58.9634 5.89067 58.3194 6.264C57.6754 6.628 57.1807 7.14133 56.8354 7.804C56.4901 8.46667 56.3174 9.23667 56.3174 10.114C56.3174 10.982 56.4901 11.752 56.8354 12.424C57.1807 13.0867 57.6754 13.6047 58.3194 13.978C58.9634 14.3513 59.7194 14.538 60.5874 14.538C61.4461 14.538 62.1927 14.3513 62.8274 13.978C63.4714 13.6047 63.9661 13.0867 64.3114 12.424C64.6567 11.752 64.8294 10.982 64.8294 10.114C64.8294 9.23667 64.6567 8.46667 64.3114 7.804C63.9661 7.14133 63.4714 6.628 62.8274 6.264C62.1927 5.89067 61.4461 5.704 60.5874 5.704ZM60.5594 6.866C59.9994 6.866 59.4861 6.99667 59.0194 7.258C58.5621 7.51933 58.1981 7.89733 57.9274 8.392C57.6567 8.87733 57.5214 9.44667 57.5214 10.1C57.5214 10.7533 57.6567 11.3273 57.9274 11.822C58.1981 12.3073 58.5621 12.6853 59.0194 12.956C59.4861 13.2173 59.9994 13.348 60.5594 13.348C61.2594 13.348 61.8661 13.1613 62.3794 12.788C62.8927 12.4053 63.2427 11.8967 63.4294 11.262H62.2534C61.9734 12.0367 61.4087 12.424 60.5594 12.424C59.9994 12.424 59.5421 12.2233 59.1874 11.822C58.8327 11.4207 58.6554 10.8513 58.6554 10.114C58.6554 9.36733 58.8327 8.79333 59.1874 8.392C59.5421 7.99067 59.9994 7.79 60.5594 7.79C60.9701 7.79 61.3247 7.89267 61.6234 8.098C61.9221 8.294 62.1321 8.57867 62.2534 8.952H63.4294C63.2521 8.28933 62.9067 7.776 62.3934 7.412C61.8801 7.048 61.2687 6.866 60.5594 6.866ZM70.1437 13.978C71.3291 13.026 72.2577 12.2467 72.9297 11.64C73.6017 11.024 74.1664 10.3847 74.6237 9.722C75.0904 9.05 75.3237 8.392 75.3237 7.748C75.3237 7.14133 75.1744 6.66533 74.8757 6.32C74.5864 5.96533 74.1151 5.788 73.4617 5.788C72.8271 5.788 72.3324 5.98867 71.9777 6.39C71.6324 6.782 71.4457 7.30933 71.4177 7.972H70.1857C70.2231 6.92667 70.5404 6.11933 71.1377 5.55C71.7351 4.98067 72.5051 4.696 73.4477 4.696C74.4091 4.696 75.1697 4.962 75.7297 5.494C76.2991 6.026 76.5837 6.75867 76.5837 7.692C76.5837 8.46667 76.3504 9.22267 75.8837 9.96C75.4264 10.688 74.9037 11.332 74.3157 11.892C73.7277 12.4427 72.9764 13.0867 72.0617 13.824H76.8777V14.888H70.1437V13.978ZM78.1405 9.834C78.1405 8.22867 78.4018 6.978 78.9245 6.082C79.4471 5.17667 80.3618 4.724 81.6685 4.724C82.9658 4.724 83.8758 5.17667 84.3985 6.082C84.9211 6.978 85.1825 8.22867 85.1825 9.834C85.1825 11.4673 84.9211 12.7367 84.3985 13.642C83.8758 14.5473 82.9658 15 81.6685 15C80.3618 15 79.4471 14.5473 78.9245 13.642C78.4018 12.7367 78.1405 11.4673 78.1405 9.834ZM83.9225 9.834C83.9225 9.022 83.8665 8.336 83.7545 7.776C83.6518 7.20667 83.4325 6.74933 83.0965 6.404C82.7698 6.05867 82.2938 5.886 81.6685 5.886C81.0338 5.886 80.5485 6.05867 80.2125 6.404C79.8858 6.74933 79.6665 7.20667 79.5545 7.776C79.4518 8.336 79.4005 9.022 79.4005 9.834C79.4005 10.674 79.4518 11.3787 79.5545 11.948C79.6665 12.5173 79.8858 12.9747 80.2125 13.32C80.5485 13.6653 81.0338 13.838 81.6685 13.838C82.2938 13.838 82.7698 13.6653 83.0965 13.32C83.4325 12.9747 83.6518 12.5173 83.7545 11.948C83.8665 11.3787 83.9225 10.674 83.9225 9.834ZM86.5675 13.978C87.7528 13.026 88.6815 12.2467 89.3535 11.64C90.0255 11.024 90.5901 10.3847 91.0475 9.722C91.5141 9.05 91.7475 8.392 91.7475 7.748C91.7475 7.14133 91.5981 6.66533 91.2995 6.32C91.0101 5.96533 90.5388 5.788 89.8855 5.788C89.2508 5.788 88.7561 5.98867 88.4015 6.39C88.0561 6.782 87.8695 7.30933 87.8415 7.972H86.6095C86.6468 6.92667 86.9641 6.11933 87.5615 5.55C88.1588 4.98067 88.9288 4.696 89.8715 4.696C90.8328 4.696 91.5935 4.962 92.1535 5.494C92.7228 6.026 93.0075 6.75867 93.0075 7.692C93.0075 8.46667 92.7741 9.22267 92.3075 9.96C91.8501 10.688 91.3275 11.332 90.7395 11.892C90.1515 12.4427 89.4001 13.0867 88.4855 13.824H93.3015V14.888H86.5675V13.978ZM94.2282 6.04V4.878H96.8602V15H95.5722V6.04H94.2282Z" fill="#133C55"/>
</svg>
