<svg width="50" height="50" viewBox="0 0 50 50" fill="none" xmlns="http://www.w3.org/2000/svg">
<path d="M25.5 0.5H25C11.469 0.5 0.5 11.469 0.5 25C0.5 38.531 11.469 49.5 25 49.5H25.5C39.031 49.5 50 38.531 50 25C50 11.469 39.031 0.5 25.5 0.5Z" fill="url(#paint0_linear)"/>
<path d="M35.4356 19.0472L34.7171 19.7657L33.7101 18.7602C33.5627 18.6127 33.3628 18.5299 33.1543 18.5298C32.9458 18.5298 32.7458 18.6125 32.5984 18.7599C32.4509 18.9073 32.368 19.1073 32.368 19.3158C32.3679 19.5243 32.4507 19.7242 32.5981 19.8717L33.6041 20.8777L32.9896 21.4922L31.9831 20.4862C31.9101 20.4132 31.8234 20.3553 31.728 20.3158C31.6326 20.2763 31.5304 20.256 31.4272 20.2561C31.3239 20.2561 31.2217 20.2764 31.1263 20.316C31.031 20.3555 30.9443 20.4134 30.8713 20.4864C30.7984 20.5595 30.7405 20.6461 30.701 20.7415C30.6615 20.8369 30.6412 20.9391 30.6412 21.0424C30.6412 21.1456 30.6616 21.2478 30.7011 21.3432C30.7407 21.4386 30.7986 21.5252 30.8716 21.5982L31.8776 22.6042L31.2631 23.2192L30.2571 22.2127C30.1091 22.0681 29.9101 21.9876 29.7032 21.9888C29.4963 21.99 29.2982 22.0727 29.1519 22.219C29.0056 22.3653 28.9229 22.5634 28.9217 22.7703C28.9205 22.9772 29.001 23.1762 29.1456 23.3242L30.1516 24.3302L29.5366 24.9452L28.5306 23.9387C28.3826 23.7941 28.1836 23.7136 27.9767 23.7148C27.7698 23.716 27.5717 23.7987 27.4254 23.945C27.2791 24.0913 27.1964 24.2894 27.1952 24.4963C27.194 24.7032 27.2745 24.9022 27.4191 25.0502L28.4251 26.0562L27.2581 27.2232L23.1281 23.0927L31.3051 14.9157C31.3836 14.8409 31.4879 14.7993 31.5963 14.7993C31.7048 14.7993 31.8091 14.8409 31.8876 14.9157L35.4376 18.4657C35.5146 18.5431 35.5578 18.6478 35.5578 18.7569C35.5578 18.8661 35.5146 18.9708 35.4376 19.0482L35.4356 19.0472ZM36.2676 17.0732L36.7176 16.6232C36.9481 16.3921 37.0776 16.0791 37.0776 15.7527C37.0776 15.4263 36.9481 15.1132 36.7176 14.8822L36.4281 14.5922L41.2171 9.80319C41.2609 9.7594 41.2956 9.7074 41.3193 9.65018C41.343 9.59296 41.3552 9.53162 41.3552 9.46968C41.3552 9.40774 41.343 9.34642 41.3193 9.2892C41.2956 9.23198 41.2609 9.17998 41.2171 9.13618C41.1733 9.09239 41.1213 9.05765 41.0641 9.03395C41.0069 9.01025 40.9455 8.99805 40.8836 8.99805C40.8217 8.99805 40.7603 9.01025 40.7031 9.03395C40.6459 9.05765 40.5939 9.09239 40.5501 9.13618L35.7611 13.9252L35.4716 13.6357C35.2406 13.4049 34.9274 13.2753 34.6008 13.2753C34.2743 13.2753 33.9611 13.4049 33.7301 13.6357L33.2801 14.0857L33.0001 13.8057C32.8159 13.6214 32.5973 13.4752 32.3566 13.3754C32.1159 13.2757 31.8579 13.2243 31.5974 13.2243C31.3368 13.2243 31.0788 13.2757 30.8381 13.3754C30.5974 13.4752 30.3787 13.6214 30.1946 13.8057L22.0046 21.9952C21.7364 21.7853 21.4004 21.6811 21.0605 21.7023C20.7205 21.7235 20.4002 21.8686 20.1601 22.1102C19.8971 22.3738 19.7495 22.7309 19.7495 23.1032C19.7495 23.4755 19.8971 23.8326 20.1601 24.0962L21.8496 25.7857L11.4696 36.1652L10.3431 35.0387C10.1957 34.8912 9.99576 34.8084 9.78726 34.8083C9.57877 34.8083 9.37881 34.8911 9.23135 35.0385C9.08389 35.1858 9.00102 35.3858 9.00098 35.5943C9.00093 35.8028 9.08372 36.0027 9.23111 36.1502L14.2021 41.1212C14.3495 41.2687 14.5494 41.3515 14.7579 41.3516C14.9664 41.3516 15.1664 41.2688 15.3138 41.1214C15.4613 40.9741 15.5442 40.7741 15.5442 40.5656C15.5443 40.3571 15.4615 40.1571 15.3141 40.0097L14.1876 38.8837L24.5671 28.5037L26.2566 30.1932C26.5074 30.4485 26.8464 30.5981 27.204 30.6112C27.5616 30.6243 27.9107 30.5 28.1795 30.2637C28.4483 30.0275 28.6164 29.6973 28.6494 29.341C28.6823 28.9846 28.5776 28.6292 28.3566 28.3477L33.5456 23.1602L35.2706 21.4352L36.5476 20.1602C36.9193 19.7879 37.128 19.2833 37.128 18.7572C37.128 18.2311 36.9193 17.7265 36.5476 17.3542L36.2681 17.0742L36.2676 17.0732Z" fill="white"/>
<path d="M36.7327 26.1331C36.6768 24.7668 36.4271 23.4153 35.9911 22.1191L33.5007 24.8026C33.6195 25.2372 33.6911 25.6833 33.7142 26.1331C33.7111 28.7732 32.661 31.3043 30.7942 33.1711C28.9273 35.038 26.3963 36.0881 23.7562 36.0911C22.2063 36.0918 20.6725 35.7771 19.2482 35.1661L17.0557 37.4316C19.1162 38.5356 21.418 39.1121 23.7557 39.1096C27.1962 39.1059 30.4947 37.7376 32.9275 35.3048C35.3604 32.8721 36.7288 29.5736 36.7327 26.1331Z" fill="white"/>
<path d="M12.9815 33.3583L15.1439 31.1238C14.2646 29.6109 13.7998 27.893 13.7964 26.1432C13.793 24.3934 14.2511 22.6736 15.1245 21.1574C15.9979 19.6411 17.2557 18.382 18.771 17.507C20.2864 16.6321 22.0056 16.1722 23.7555 16.1738C24.5523 16.2024 25.3448 16.3043 26.1229 16.4783L28.6005 14.0653C27.0485 13.4904 25.4103 13.1828 23.7555 13.1553C21.4038 13.1543 19.0962 13.7928 17.0794 15.0022C15.0626 16.2117 13.4126 17.9468 12.3059 20.0217C11.1992 22.0967 10.6774 24.4335 10.7964 26.7821C10.9154 29.1307 11.6707 31.4028 12.9815 33.3553V33.3583Z" fill="white"/>
<path d="M50 25C50 11.1929 38.8071 0 25 0C11.1929 0 0 11.1929 0 25C0 38.8071 11.1929 50 25 50C38.8071 50 50 38.8071 50 25Z" fill="url(#paint1_linear)"/>
<path d="M35.4356 19.0472L34.7171 19.7657L33.7101 18.7602C33.5627 18.6127 33.3628 18.5299 33.1543 18.5298C32.9458 18.5298 32.7458 18.6125 32.5984 18.7599C32.4509 18.9073 32.368 19.1073 32.368 19.3158C32.3679 19.5243 32.4507 19.7242 32.5981 19.8717L33.6041 20.8777L32.9896 21.4922L31.9831 20.4862C31.9101 20.4132 31.8234 20.3553 31.728 20.3158C31.6326 20.2763 31.5304 20.256 31.4272 20.2561C31.3239 20.2561 31.2217 20.2764 31.1263 20.316C31.031 20.3555 30.9443 20.4134 30.8713 20.4864C30.7984 20.5595 30.7405 20.6461 30.701 20.7415C30.6615 20.8369 30.6412 20.9391 30.6412 21.0424C30.6412 21.1456 30.6616 21.2478 30.7011 21.3432C30.7407 21.4386 30.7986 21.5252 30.8716 21.5982L31.8776 22.6042L31.2631 23.2192L30.2571 22.2127C30.1091 22.0681 29.9101 21.9876 29.7032 21.9888C29.4963 21.99 29.2982 22.0727 29.1519 22.219C29.0056 22.3653 28.9229 22.5634 28.9217 22.7703C28.9205 22.9772 29.001 23.1762 29.1456 23.3242L30.1516 24.3302L29.5366 24.9452L28.5306 23.9387C28.3826 23.7941 28.1836 23.7136 27.9767 23.7148C27.7698 23.716 27.5717 23.7987 27.4254 23.945C27.2791 24.0913 27.1964 24.2894 27.1952 24.4963C27.194 24.7032 27.2745 24.9022 27.4191 25.0502L28.4251 26.0562L27.2581 27.2232L23.1281 23.0927L31.3051 14.9157C31.3836 14.8409 31.4879 14.7993 31.5963 14.7993C31.7048 14.7993 31.8091 14.8409 31.8876 14.9157L35.4376 18.4657C35.5146 18.5431 35.5578 18.6478 35.5578 18.7569C35.5578 18.8661 35.5146 18.9708 35.4376 19.0482L35.4356 19.0472ZM36.2676 17.0732L36.7176 16.6232C36.9481 16.3921 37.0776 16.0791 37.0776 15.7527C37.0776 15.4263 36.9481 15.1132 36.7176 14.8822L36.4281 14.5922L41.2171 9.80319C41.2609 9.7594 41.2956 9.7074 41.3193 9.65018C41.343 9.59296 41.3552 9.53162 41.3552 9.46968C41.3552 9.40774 41.343 9.34642 41.3193 9.2892C41.2956 9.23198 41.2609 9.17998 41.2171 9.13618C41.1733 9.09239 41.1213 9.05765 41.0641 9.03395C41.0069 9.01025 40.9455 8.99805 40.8836 8.99805C40.8217 8.99805 40.7603 9.01025 40.7031 9.03395C40.6459 9.05765 40.5939 9.09239 40.5501 9.13618L35.7611 13.9252L35.4716 13.6357C35.2406 13.4049 34.9274 13.2753 34.6008 13.2753C34.2743 13.2753 33.9611 13.4049 33.7301 13.6357L33.2801 14.0857L33.0001 13.8057C32.8159 13.6214 32.5973 13.4752 32.3566 13.3754C32.1159 13.2757 31.8579 13.2243 31.5974 13.2243C31.3368 13.2243 31.0788 13.2757 30.8381 13.3754C30.5974 13.4752 30.3787 13.6214 30.1946 13.8057L22.0046 21.9952C21.7364 21.7853 21.4004 21.6811 21.0605 21.7023C20.7205 21.7235 20.4002 21.8686 20.1601 22.1102C19.8971 22.3738 19.7495 22.7309 19.7495 23.1032C19.7495 23.4755 19.8971 23.8326 20.1601 24.0962L21.8496 25.7857L11.4696 36.1652L10.3431 35.0387C10.1957 34.8912 9.99576 34.8084 9.78726 34.8083C9.57877 34.8083 9.37881 34.8911 9.23135 35.0385C9.08389 35.1858 9.00102 35.3858 9.00098 35.5943C9.00093 35.8028 9.08372 36.0027 9.23111 36.1502L14.2021 41.1212C14.3495 41.2687 14.5494 41.3515 14.7579 41.3516C14.9664 41.3516 15.1664 41.2688 15.3138 41.1214C15.4613 40.9741 15.5442 40.7741 15.5442 40.5656C15.5443 40.3571 15.4615 40.1571 15.3141 40.0097L14.1876 38.8837L24.5671 28.5037L26.2566 30.1932C26.5074 30.4485 26.8464 30.5981 27.204 30.6112C27.5616 30.6243 27.9107 30.5 28.1795 30.2637C28.4483 30.0275 28.6164 29.6973 28.6494 29.341C28.6823 28.9846 28.5776 28.6292 28.3566 28.3477L33.5456 23.1602L35.2706 21.4352L36.5476 20.1602C36.9193 19.7879 37.128 19.2833 37.128 18.7572C37.128 18.2311 36.9193 17.7265 36.5476 17.3542L36.2681 17.0742L36.2676 17.0732Z" fill="white"/>
<path d="M36.7327 26.1331C36.6768 24.7668 36.4271 23.4153 35.9911 22.1191L33.5007 24.8026C33.6195 25.2372 33.6911 25.6833 33.7142 26.1331C33.7111 28.7732 32.661 31.3043 30.7942 33.1711C28.9273 35.038 26.3963 36.0881 23.7562 36.0911C22.2063 36.0918 20.6725 35.7771 19.2482 35.1661L17.0557 37.4316C19.1162 38.5356 21.418 39.1121 23.7557 39.1096C27.1962 39.1059 30.4947 37.7376 32.9275 35.3048C35.3604 32.8721 36.7288 29.5736 36.7327 26.1331Z" fill="white"/>
<path d="M12.9815 33.3583L15.1439 31.1238C14.2646 29.6109 13.7998 27.893 13.7964 26.1432C13.793 24.3934 14.2511 22.6736 15.1245 21.1574C15.9979 19.6411 17.2557 18.382 18.771 17.507C20.2864 16.6321 22.0056 16.1722 23.7555 16.1738C24.5523 16.2024 25.3448 16.3043 26.1229 16.4783L28.6005 14.0653C27.0485 13.4904 25.4103 13.1828 23.7555 13.1553C21.4038 13.1543 19.0962 13.7928 17.0794 15.0022C15.0626 16.2117 13.4126 17.9468 12.3059 20.0217C11.1992 22.0967 10.6774 24.4335 10.7964 26.7821C10.9154 29.1307 11.6707 31.4028 12.9815 33.3553V33.3583Z" fill="white"/>
<defs>
<linearGradient id="paint0_linear" x1="0.5" y1="25" x2="50" y2="25" gradientUnits="userSpaceOnUse">
<stop stop-color="#008CFF"/>
<stop offset="1" stop-color="#00C8FF"/>
</linearGradient>
<linearGradient id="paint1_linear" x1="0" y1="25" x2="50" y2="25" gradientUnits="userSpaceOnUse">
<stop stop-color="#FF836A"/>
<stop offset="1" stop-color="#EB3C7D"/>
</linearGradient>
</defs>
</svg>
