<svg width="16" height="16" viewBox="0 0 16 16" fill="none" xmlns="http://www.w3.org/2000/svg">
<path d="M12.3856 4.70959L12.0489 5.04628L11.5777 4.57512C11.5087 4.50606 11.415 4.46725 11.3173 4.46725C11.2197 4.46725 11.126 4.50606 11.0569 4.57512C10.9878 4.64419 10.949 4.73786 10.949 4.83554C10.949 4.93321 10.9878 5.02688 11.0569 5.09594L11.5281 5.56746L11.24 5.85555L10.7685 5.38403C10.6994 5.31497 10.6057 5.27616 10.5081 5.27616C10.4104 5.27616 10.3167 5.31497 10.2477 5.38403C10.1786 5.4531 10.1398 5.54678 10.1398 5.64445C10.1398 5.74213 10.1786 5.83579 10.2477 5.90486L10.7188 6.37637L10.4307 6.66446L9.9592 6.19295C9.89013 6.12388 9.79648 6.08509 9.69881 6.08509C9.60113 6.08509 9.50746 6.12388 9.43839 6.19295C9.36932 6.26201 9.33051 6.35569 9.33051 6.45336C9.33051 6.55104 9.36932 6.6447 9.43839 6.71377L9.90955 7.18528L9.62146 7.47337L9.1503 7.00186C9.11612 6.96759 9.07554 6.9404 9.03085 6.92181C8.98617 6.90323 8.93826 6.89363 8.88986 6.89357C8.84146 6.8935 8.79352 6.90297 8.74878 6.92142C8.70405 6.93988 8.66339 6.96698 8.62912 7.00116C8.59485 7.03533 8.56765 7.07591 8.54906 7.1206C8.53048 7.16529 8.52089 7.2132 8.52083 7.26159C8.52076 7.30999 8.53021 7.35792 8.54867 7.40266C8.56713 7.4474 8.59423 7.48807 8.62841 7.52234L9.09956 7.99384L8.55283 8.54057L6.61783 6.60556L10.4495 2.77387C10.4863 2.73888 10.5352 2.71937 10.5859 2.71937C10.6367 2.71937 10.6855 2.73888 10.7223 2.77387L12.3845 4.43605C12.4206 4.47228 12.4408 4.52133 12.4408 4.57246C12.4408 4.62359 12.4206 4.67265 12.3845 4.70888L12.3856 4.70959ZM12.7759 3.78466L12.9859 3.57462C13.094 3.46638 13.1548 3.31963 13.1548 3.16662C13.1548 3.01361 13.094 2.86686 12.9859 2.75862L12.85 2.62274L15.0937 0.379065C15.1146 0.358625 15.1312 0.334238 15.1426 0.307323C15.154 0.280409 15.16 0.251498 15.1602 0.222265C15.1603 0.193031 15.1547 0.164062 15.1436 0.137022C15.1325 0.109982 15.1161 0.0854111 15.0954 0.0647394C15.0748 0.0440677 15.0502 0.0277027 15.0232 0.0165908C14.9961 0.00547882 14.9671 -0.000159948 14.9379 3.45215e-06C14.9087 0.000166852 14.8798 0.00613004 14.8528 0.0175436C14.8259 0.0289571 14.8015 0.0455919 14.7811 0.0664934L12.5374 2.31016L12.4016 2.17428C12.2933 2.06613 12.1466 2.00538 11.9935 2.00538C11.8405 2.00538 11.6938 2.06613 11.5856 2.17428L11.3759 2.38396L11.2446 2.25269C11.0704 2.07885 10.8343 1.98121 10.5882 1.98121C10.3421 1.98121 10.1061 2.07885 9.93189 2.25269L6.09276 6.09041C5.96702 5.99196 5.8095 5.94311 5.65012 5.95311C5.49074 5.96312 5.34058 6.0313 5.22814 6.1447C5.10484 6.26817 5.03559 6.43551 5.03559 6.61C5.03559 6.78449 5.10484 6.95184 5.22814 7.0753L6.01965 7.86683L1.15661 12.7299L0.628693 12.2023C0.559627 12.1333 0.465951 12.0945 0.368277 12.0945C0.270603 12.0945 0.176927 12.1333 0.107861 12.2023C0.0387949 12.2714 0 12.3651 0 12.4627C0 12.5604 0.0387949 12.6541 0.107861 12.7231L2.43667 15.0523C2.47086 15.0865 2.51147 15.1136 2.55615 15.1322C2.60084 15.1507 2.64872 15.1602 2.69708 15.1602C2.74545 15.1602 2.79335 15.1507 2.83803 15.1322C2.88271 15.1136 2.9233 15.0865 2.9575 15.0523C2.9917 15.0181 3.01883 14.9775 3.03734 14.9328C3.05585 14.8882 3.06536 14.8403 3.06536 14.7919C3.06536 14.7435 3.05585 14.6957 3.03734 14.651C3.01883 14.6063 2.9917 14.5657 2.9575 14.5315L2.42993 14.0039L7.293 9.14086L8.08451 9.9324C8.20225 10.0511 8.36085 10.1204 8.52793 10.1261C8.69501 10.1319 8.85799 10.0737 8.9836 9.96334C9.10922 9.85303 9.18802 9.69893 9.20389 9.53251C9.21977 9.36608 9.17154 9.19986 9.06905 9.06778L11.4997 6.63715L12.3079 5.82894L12.9046 5.23218C13.0787 5.05773 13.1764 4.82137 13.1764 4.57495C13.1764 4.32853 13.0787 4.09216 12.9046 3.9177L12.7734 3.78643L12.7759 3.78466Z" fill="white"/>
<path d="M12.994 8.03075C12.9678 7.39068 12.8508 6.75758 12.6466 6.15039L11.4798 7.40741C11.5355 7.6111 11.569 7.82022 11.5798 8.03112C11.5784 9.26804 11.0864 10.4539 10.2118 11.3285C9.33714 12.2032 8.15129 12.6951 6.91437 12.6965C6.18826 12.6969 5.46967 12.5495 4.80233 12.2634L3.77344 13.3249C4.73885 13.8421 5.81735 14.1122 6.9126 14.1111C8.52489 14.1098 10.0708 13.4688 11.211 12.3288C12.3511 11.1888 12.9924 9.64305 12.994 8.03075Z" fill="white"/>
<path d="M1.86475 11.4144L2.87766 10.3675C2.46578 9.65867 2.24808 8.85379 2.24652 8.03402C2.24496 7.21425 2.4596 6.40856 2.86878 5.69821C3.27797 4.98786 3.86723 4.39796 4.57714 3.98802C5.28706 3.57807 6.09252 3.36258 6.91229 3.36326C7.28567 3.37643 7.65705 3.42393 8.02172 3.50518L9.18222 2.37447C8.45484 2.10526 7.6871 1.96131 6.9116 1.94873C5.80973 1.94823 4.72844 2.24733 3.78347 2.81403C2.83849 3.38074 2.06539 4.19371 1.54689 5.16596C1.02838 6.13822 0.783982 7.23315 0.839848 8.33361C0.895714 9.43407 1.24973 10.4986 1.86404 11.4134L1.86475 11.4144Z" fill="white"/>
</svg>
