<svg width="480" height="480" viewBox="0 0 480 480" fill="none" xmlns="http://www.w3.org/2000/svg">
<path d="M93.3696 412.272C175.987 455.472 309.946 455.472 392.563 412.272C475.181 369.072 475.181 299.126 392.563 255.965C309.946 212.803 175.987 212.765 93.3696 255.965C10.752 299.165 10.7424 369.12 93.3696 412.272Z" fill="#F5F5F5"/>
<path d="M340.474 373.094C362.153 373.094 379.728 362.947 379.728 350.429C379.728 337.911 362.153 327.763 340.474 327.763C318.794 327.763 301.219 337.911 301.219 350.429C301.219 362.947 318.794 373.094 340.474 373.094Z" fill="#E0E0E0"/>
<path d="M101.376 338.592C100.79 331.93 94.7712 318.557 87.1008 310.512C79.4304 302.467 68.016 297.072 60.528 300.403C53.5488 303.494 55.152 312.883 64.4256 318.346C73.6992 323.808 87.4656 330.538 92.2656 341.011L101.472 353.568L101.376 338.592Z" fill="#00A4FF"/>
<path opacity="0.1" d="M101.376 338.592C100.79 331.93 94.7712 318.557 87.1008 310.512C79.4304 302.467 68.016 297.072 60.528 300.403C53.5488 303.494 55.152 312.883 64.4256 318.346C73.6992 323.808 87.4656 330.538 92.2656 341.011L101.472 353.568L101.376 338.592Z" fill="black"/>
<path d="M102.662 347.664C102.555 347.667 102.45 347.634 102.365 347.569C102.279 347.505 102.218 347.413 102.192 347.309C95.7409 324.96 75.7345 308.093 64.3681 304.963C64.305 304.946 64.246 304.917 64.1943 304.877C64.1425 304.837 64.0992 304.788 64.0666 304.731C64.0341 304.674 64.013 304.612 64.0046 304.547C63.9962 304.482 64.0007 304.417 64.0177 304.354C64.0347 304.291 64.064 304.232 64.1038 304.18C64.1437 304.128 64.1933 304.085 64.2499 304.052C64.3065 304.02 64.369 303.999 64.4337 303.99C64.4985 303.982 64.5642 303.986 64.6273 304.003C76.2049 307.19 96.5857 324.336 103.123 347.021C103.142 347.082 103.149 347.146 103.143 347.21C103.137 347.274 103.118 347.336 103.088 347.392C103.057 347.448 103.016 347.498 102.966 347.538C102.916 347.578 102.858 347.608 102.797 347.626L102.662 347.664Z" fill="white"/>
<path d="M100.541 362.515C99.1392 358.867 94.032 353.088 86.1408 348.624C77.5008 343.699 66.8832 342.01 64.0608 337.814C60.7296 332.794 64.752 327.418 73.248 327.725C81.744 328.032 97.5168 338.208 101.395 355.267L100.541 362.515Z" fill="#00A4FF"/>
<path d="M101.827 358.445C101.732 358.446 101.639 358.419 101.559 358.368C101.479 358.317 101.415 358.243 101.376 358.157C92.7362 339.293 77.2418 333.754 70.2818 333.456C70.2175 333.454 70.1543 333.438 70.0959 333.412C70.0374 333.385 69.9848 333.346 69.9411 333.299C69.8974 333.252 69.8635 333.197 69.8412 333.136C69.819 333.076 69.8089 333.012 69.8114 332.947C69.8125 332.883 69.8268 332.819 69.8534 332.761C69.88 332.702 69.9183 332.65 69.966 332.607C70.0137 332.563 70.0697 332.53 70.1306 332.51C70.1916 332.489 70.2561 332.481 70.3202 332.486C78.0002 332.803 93.3602 338.486 102.269 357.754C102.319 357.871 102.322 358.003 102.277 358.123C102.232 358.243 102.144 358.341 102.029 358.397C101.966 358.426 101.897 358.443 101.827 358.445Z" fill="white"/>
<path d="M362.084 329.962C361.94 324.595 363.428 315.61 368.708 306.634C374.362 297.034 381.821 290.602 388.09 292.56C393.927 294.384 392.64 302.304 383.866 310.935C377.703 316.992 371.52 324.672 368.64 333.456L363.706 344.765L362.084 329.962Z" fill="#00A4FF"/>
<path d="M362.084 329.962C361.94 324.595 363.428 315.61 368.708 306.634C374.362 297.034 381.821 290.602 388.09 292.56C393.927 294.384 392.64 302.304 383.866 310.935C377.703 316.992 371.52 324.672 368.64 333.456L363.706 344.765L362.084 329.962Z" fill="#00A4FF"/>
<g opacity="0.1">
<path opacity="0.1" d="M362.084 329.962C361.94 324.595 363.428 315.61 368.708 306.634C374.362 297.034 381.821 290.602 388.09 292.56C393.927 294.384 392.64 302.304 383.866 310.935C377.703 316.992 371.52 324.672 368.64 333.456L363.706 344.765L362.084 329.962Z" fill="black"/>
</g>
<path d="M363.063 333.946C363.141 333.939 363.215 333.908 363.273 333.856C363.332 333.804 363.373 333.735 363.389 333.658C367.152 318.355 376.675 302.247 385.555 296.218C385.626 296.156 385.671 296.072 385.683 295.979C385.696 295.887 385.674 295.793 385.622 295.716C385.571 295.638 385.492 295.582 385.402 295.558C385.312 295.534 385.217 295.543 385.133 295.584C376.119 301.738 366.451 318.029 362.65 333.504C362.638 333.552 362.637 333.602 362.644 333.65C362.652 333.699 362.67 333.746 362.695 333.788C362.721 333.829 362.755 333.866 362.795 333.895C362.835 333.924 362.88 333.944 362.928 333.955C362.973 333.962 363.019 333.959 363.063 333.946Z" fill="white"/>
<path d="M362.035 347.309C364.997 349.938 368.6 351.739 372.48 352.531C379.2 354 382.33 350.957 382.33 350.957C382.33 350.957 380.045 344.477 376.33 342.471C380.418 343.645 384.278 345.505 387.744 347.971C387.744 347.971 391.853 348.279 393.869 342.096C393.869 342.096 391.651 338.16 383.587 335.635C387.671 335.149 391.811 335.602 395.693 336.96C396.221 337.21 398.995 329.223 399.917 325.517C400.839 321.811 399.322 321.754 396.451 320.803C393.581 319.853 383.645 318.768 381.725 320.266C379.805 321.763 378.538 327.197 378.538 327.197C378.538 327.197 376.973 323.991 377.578 321.235C375.575 320.531 373.405 320.454 371.357 321.015C368.007 321.975 368.122 323.578 367.978 325.968C367.822 328.373 368.01 330.788 368.535 333.139C368.535 333.139 366.384 331.037 366.739 323.799C366.739 323.799 362.074 327.331 360.096 330.519C358.119 333.706 358.08 342.183 362.035 347.309Z" fill="#00A4FF"/>
<path d="M362.007 347.693C362.078 347.697 362.149 347.681 362.211 347.647C362.274 347.613 362.326 347.563 362.362 347.501C368.477 336.519 389.491 324.586 396.826 323.607C396.875 323.6 396.922 323.583 396.965 323.558C397.008 323.533 397.045 323.499 397.075 323.46C397.105 323.42 397.127 323.375 397.139 323.327C397.152 323.279 397.154 323.228 397.147 323.179C397.14 323.13 397.124 323.083 397.099 323.04C397.073 322.997 397.04 322.96 397 322.93C396.961 322.9 396.916 322.878 396.867 322.866C396.819 322.854 396.769 322.851 396.72 322.858C389.271 323.818 367.92 335.971 361.699 347.126C361.651 347.215 361.638 347.318 361.665 347.415C361.692 347.512 361.756 347.595 361.843 347.645C361.893 347.674 361.949 347.69 362.007 347.693Z" fill="white"/>
<path d="M106.56 369.869L103.949 368.362C102.831 367.633 101.9 366.65 101.233 365.495C100.566 364.339 100.181 363.042 100.109 361.709V132.758C100.18 131.424 100.565 130.125 101.232 128.968C101.899 127.81 102.83 126.826 103.949 126.096L209.549 65.136C210.739 64.5314 212.054 64.2163 213.389 64.2163C214.723 64.2163 216.039 64.5314 217.229 65.136L219.84 66.6432C220.958 67.3725 221.888 68.355 222.555 69.5108C223.222 70.6666 223.608 71.9634 223.68 73.296V302.256C223.608 303.589 223.222 304.885 222.555 306.041C221.888 307.197 220.958 308.179 219.84 308.909L114.24 369.869C113.05 370.473 111.735 370.788 110.4 370.788C109.066 370.788 107.75 370.473 106.56 369.869Z" fill="#37474F"/>
<path d="M115.555 137.28L101.232 129.014C100.543 130.163 100.157 131.468 100.109 132.806V361.709C100.181 363.042 100.566 364.339 101.233 365.495C101.9 366.65 102.831 367.633 103.949 368.362L106.56 369.869C107.75 370.473 109.066 370.788 110.4 370.788C111.735 370.788 113.05 370.473 114.24 369.869L115.546 369.12L115.555 137.28Z" fill="#263238"/>
<path d="M110.4 138.701V367.68C110.4 370.137 112.118 371.126 114.24 369.897L219.84 308.937C220.957 308.208 221.888 307.226 222.555 306.07C223.222 304.914 223.607 303.617 223.68 302.285V73.2959C223.68 70.8479 221.961 69.8591 219.84 71.0783L114.24 132.048C113.121 132.776 112.189 133.758 111.522 134.914C110.855 136.07 110.47 137.368 110.4 138.701Z" fill="#455A64"/>
<path d="M118.848 153.177L214.848 97.7375C216.662 96.6911 218.141 97.5455 218.141 99.6575V282.298C218.079 283.44 217.748 284.552 217.176 285.542C216.604 286.533 215.806 287.375 214.848 288L118.848 343.43C117.024 344.486 115.555 343.632 115.555 341.51V158.88C115.615 157.737 115.944 156.624 116.517 155.633C117.089 154.642 117.888 153.801 118.848 153.177Z" fill="#FAFAFA"/>
<g opacity="0.4">
<path opacity="0.4" d="M167.386 167.568C178.148 161.357 186.874 166.397 186.874 178.819C186.874 191.241 178.148 206.371 167.386 212.582C156.624 218.793 147.898 213.763 147.898 201.331C147.898 188.899 156.624 173.76 167.386 167.568Z" fill="#00A4FF"/>
<path opacity="0.4" d="M205.795 234.048C205.795 213.629 191.463 204.557 173.779 214.771L162.72 221.155C145.037 231.36 130.704 256.195 130.704 276.614V282.115L205.795 238.781V234.048Z" fill="#00A4FF"/>
</g>
<path d="M167.04 107.52C168.461 106.694 169.613 107.366 169.613 109.008C169.565 109.901 169.307 110.769 168.86 111.544C168.413 112.318 167.79 112.975 167.04 113.462C165.619 114.288 164.467 113.616 164.467 111.974C164.515 111.082 164.773 110.213 165.22 109.439C165.667 108.665 166.291 108.007 167.04 107.52Z" fill="#263238"/>
<path d="M159.61 120.365C164.842 117.485 174.173 111.926 179.328 108.893C180.202 108.374 180.912 108.73 180.912 109.68C180.874 110.216 180.71 110.736 180.433 111.196C180.156 111.656 179.774 112.045 179.318 112.33L159.571 123.734C158.688 124.243 157.978 123.888 157.978 122.928C158.022 122.401 158.194 121.892 158.478 121.446C158.762 120.999 159.151 120.628 159.61 120.365Z" fill="#263238"/>
<path d="M154.618 123.254C155.414 122.794 156.067 123.168 156.067 124.09C156.039 124.592 155.893 125.08 155.641 125.515C155.389 125.95 155.039 126.32 154.618 126.595C153.821 127.056 153.168 126.682 153.168 125.76C153.196 125.258 153.342 124.769 153.594 124.334C153.846 123.899 154.196 123.529 154.618 123.254Z" fill="#263238"/>
<path d="M167.04 321.6C169.92 319.958 172.195 321.293 172.195 324.576C172.099 326.363 171.582 328.103 170.686 329.653C169.79 331.202 168.541 332.519 167.04 333.494C164.16 335.136 161.895 333.801 161.895 330.518C161.991 328.732 162.508 326.994 163.402 325.444C164.296 323.895 165.542 322.578 167.04 321.6Z" fill="#263238"/>
<path d="M254.601 257.414L243.023 250.694L242.898 250.627C237.138 247.382 229.247 247.853 220.502 252.912C212.322 257.626 204.854 265.488 199.228 274.598C192.729 285.082 188.668 297.226 188.668 308.102C188.668 318.25 192.22 325.382 197.961 328.714L209.721 335.434C215.529 339.139 223.718 338.803 232.818 333.562C250.396 323.52 264.671 298.762 264.671 278.4C264.671 267.84 260.793 260.554 254.601 257.414Z" fill="#00A4FF"/>
<path opacity="0.1" d="M209.472 335.376L197.952 328.79C192.192 325.459 188.659 318.326 188.659 308.179C188.659 297.293 192.749 285.139 199.219 274.675L211.526 281.769C205.018 292.262 200.966 304.377 200.966 315.245C200.918 324.931 204.173 331.872 209.472 335.376Z" fill="black"/>
<path opacity="0.4" d="M254.4 257.28C248.717 254.525 241.143 255.226 232.829 260.016C224.515 264.806 217.143 272.64 211.507 281.75L199.2 274.656C204.826 265.546 212.295 257.683 220.474 252.97C229.21 247.92 237.111 247.44 242.871 250.685L242.995 250.752L254.4 257.28Z" fill="white"/>
<path d="M249.399 270.24L244.983 267.686L227.693 308.438L230.64 310.137L249.399 270.24Z" fill="white"/>
<path d="M224.304 299.337L219.888 296.793L215.146 306.825L219.562 309.37L224.304 299.337Z" fill="white"/>
<path d="M231.773 322.09L219.562 309.37L224.304 299.338L230.64 310.138L249.398 270.24L256.349 277.018L231.773 322.09Z" fill="#F5F5F5"/>
<path d="M215.146 306.825L219.562 309.369L231.773 322.089L227.366 319.565L215.146 306.825Z" fill="#E0E0E0"/>
<path d="M344.64 157.363C349.64 157.363 354.436 155.377 357.972 151.841C361.508 148.305 363.494 143.509 363.494 138.509V137.395C363.496 135.297 363.083 133.218 362.281 131.279C361.479 129.34 360.302 127.578 358.819 126.093C357.335 124.609 355.574 123.431 353.635 122.628C351.696 121.825 349.618 121.411 347.52 121.411H341.76C337.521 121.411 333.455 123.095 330.457 126.093C327.46 129.09 325.776 133.156 325.776 137.395V138.509C325.776 140.986 326.264 143.438 327.212 145.726C328.16 148.014 329.55 150.093 331.302 151.844C333.053 153.595 335.133 154.984 337.422 155.931C339.71 156.878 342.163 157.364 344.64 157.363Z" fill="#263238"/>
<path d="M325.19 343.862C322.991 346.17 320.581 348.265 317.99 350.122C317.595 350.386 317.267 350.737 317.03 351.149C316.694 351.859 316.166 353.606 319.382 354.73C321.008 355.293 322.737 355.499 324.45 355.333C326.163 355.168 327.82 354.634 329.308 353.77C331.958 352.118 332.073 348.682 334.569 346.714C336.412 345.264 338.716 344.89 340.214 342.989C341.251 341.664 340.982 339.907 340.435 337.728C339.849 335.347 339.571 333.552 338.784 333.734L338.918 334.829C337.958 336.394 332.841 336.854 330.576 335.789C330.537 335.77 326.62 342.298 325.19 343.862Z" fill="#263238"/>
<path d="M322.953 346.08C323.721 345.379 324.47 344.65 325.19 343.862C326.697 341.906 328.086 339.861 329.347 337.738C330.216 336.451 330.626 334.908 330.509 333.36C330.326 331.709 329.875 327.494 329.875 327.494L337.939 326.918L338.899 334.829C339.091 336.624 337.613 338.218 334.982 340.483C332.352 342.749 329.03 348.019 326.649 349.344C324.269 350.669 322.579 350.621 321.561 349.939C320.544 349.258 320.4 348.701 322.953 346.08Z" fill="#B16668"/>
<path d="M355.862 344.582V343.363C355.391 344.794 353.174 350.909 349.804 353.981C347.135 356.419 343.487 359.232 342.556 361.958C341.625 364.685 347.635 365.731 350.131 365.29C353.011 364.781 356.793 363.13 358.838 360.624C360.268 358.858 361.19 356.784 362.217 355.373C363.244 353.962 365.606 352.435 366.163 350.822C366.47 349.939 366.105 348.01 365.673 346.378C365.241 344.746 364.857 343.229 364.348 343.363V344.323C363.139 345.271 361.641 345.776 360.105 345.754C358.867 345.773 355.852 345.523 355.862 344.582Z" fill="#263238"/>
<path d="M347.385 356.16C348.211 355.421 349.046 354.701 349.805 354.01C352.157 351.869 353.952 348.249 354.979 345.753C355.566 344.338 355.87 342.822 355.872 341.29V336.49H364.349V344.361V344.573C363.945 346.339 360.048 351.024 357.84 354.077C356.361 356.121 353.549 358.733 350.16 359.184C346.944 359.549 345.312 358.541 347.385 356.16Z" fill="#B16668"/>
<path d="M362.659 212.813C369.235 227.165 362.419 277.738 362.419 277.738C362.621 280.07 365.299 284.659 366.259 294.912C367.43 307.027 364.416 337.44 364.416 337.44C363.123 338.192 361.667 338.617 360.172 338.678C358.678 338.738 357.192 338.432 355.843 337.786C355.843 337.786 347.769 291.965 346.243 279.926C344.918 269.414 342.403 244.704 342.403 244.704L335.798 280.147C337.021 283.463 337.886 286.9 338.381 290.4C339.062 297.494 338.553 330.259 338.553 330.259C338.553 330.259 335.673 332.467 330.096 331.651C330.096 331.651 320.496 286.781 319.737 278.256C319.296 273.168 325.094 210.71 325.094 210.71L362.659 212.813Z" fill="#00A4FF"/>
<path opacity="0.6" d="M362.659 212.813C369.235 227.165 362.419 277.738 362.419 277.738C362.621 280.07 365.299 284.659 366.259 294.912C367.43 307.027 364.416 337.44 364.416 337.44C363.123 338.192 361.667 338.617 360.172 338.678C358.678 338.738 357.192 338.432 355.843 337.786C355.843 337.786 347.769 291.965 346.243 279.926C344.918 269.414 342.403 244.704 342.403 244.704L335.798 280.147C337.021 283.463 337.886 286.9 338.381 290.4C339.062 297.494 338.553 330.259 338.553 330.259C338.553 330.259 335.673 332.467 330.096 331.651C330.096 331.651 320.496 286.781 319.737 278.256C319.296 273.168 325.094 210.71 325.094 210.71L362.659 212.813Z" fill="black"/>
<path opacity="0.3" d="M342.393 244.704L340.262 232.963C340.262 232.963 331.228 231.091 327.139 227.203C327.139 227.203 331.43 232.55 337.814 234.298L340.214 244.56L336.441 276.624L342.393 244.704Z" fill="black"/>
<path d="M373.373 206.573C373.305 205.613 371.539 195.581 370.329 189.955L358.512 193.574L360.614 203.923L370.56 211.91C373.689 211.296 373.44 207.513 373.373 206.573Z" fill="#B16668"/>
<path d="M316.214 185.376L310.627 195.619L319.325 203.069L327.283 190.445L316.214 185.376Z" fill="#B16668"/>
<path d="M337.181 162.557C331.641 162.614 325.536 164.621 323.433 168.969C321.331 173.318 315.523 185.289 315.523 185.289C315.523 185.289 320.697 192.317 328.464 191.808L337.181 162.557Z" fill="#00A4FF"/>
<path opacity="0.6" d="M337.181 162.557C331.641 162.614 325.536 164.621 323.433 168.969C321.331 173.318 315.523 185.289 315.523 185.289C315.523 185.289 320.697 192.317 328.464 191.808L337.181 162.557Z" fill="black"/>
<path d="M348.643 162.749L353.26 162.941C358.272 164.141 360.086 167.587 362.188 172.032C363.73 175.464 363.875 179.362 362.592 182.899L356.716 199.891C356.716 199.891 359.462 206.534 362.659 212.813C347.923 221.04 329.52 216.71 325.084 210.71C324.902 209.433 325.152 203.702 324.796 197.174C324.422 190.205 323.462 182.342 324.556 178.041C326.592 170.054 330.393 162.557 337.996 162.557L348.643 162.749Z" fill="#F5F5F5"/>
<path d="M353.28 162.941C358.301 163.651 365.693 164.659 368.237 176.611C370.819 188.726 371.309 191.616 371.309 191.616C371.309 191.616 366.912 196.003 358.569 195.965C358.55 195.965 351.197 172.176 353.28 162.941Z" fill="#00A4FF"/>
<path opacity="0.6" d="M353.28 162.941C358.301 163.651 365.693 164.659 368.237 176.611C370.819 188.726 371.309 191.616 371.309 191.616C371.309 191.616 366.912 196.003 358.569 195.965C358.55 195.965 351.197 172.176 353.28 162.941Z" fill="black"/>
<path d="M358.329 195.225C357.369 192.048 356.409 188.419 355.497 184.521C355.536 189.421 356.035 194.307 356.985 199.113L358.329 195.225Z" fill="#EBEBEB"/>
<path d="M331.929 129.033C329.942 130.214 327.484 135.225 327.724 145.728C327.926 154.627 330.815 156.825 332.265 157.459C333.715 158.093 336.508 157.709 339.225 157.257V162.605C339.225 162.605 335.472 166.963 335.702 169.411C335.932 171.859 341.126 172.445 344.64 170.045C346.914 168.407 348.867 166.363 350.4 164.016V151.094C350.4 151.094 352.233 153.542 355.2 151.555C358.166 149.568 358.31 144.633 356.572 142.857C354.835 141.081 351.062 141.648 350.371 144.096C350.371 144.096 346.032 144.259 340.262 141.091C338.025 139.876 336.105 138.151 334.657 136.056C333.21 133.962 332.275 131.556 331.929 129.033Z" fill="#B16668"/>
<path d="M337.66 143.491C337.657 143.712 337.718 143.928 337.837 144.114C337.956 144.3 338.127 144.446 338.328 144.536C338.53 144.625 338.753 144.653 338.97 144.616C339.188 144.58 339.389 144.48 339.55 144.329C339.711 144.179 339.825 143.984 339.876 143.77C339.927 143.555 339.914 143.331 339.838 143.124C339.763 142.916 339.628 142.736 339.451 142.605C339.273 142.474 339.061 142.398 338.841 142.387C338.691 142.382 338.541 142.407 338.401 142.459C338.26 142.512 338.132 142.592 338.022 142.694C337.912 142.797 337.824 142.92 337.762 143.057C337.7 143.193 337.665 143.341 337.66 143.491Z" fill="#263238"/>
<path d="M337.363 151.037L334.761 151.872C334.805 152.048 334.885 152.213 334.995 152.358C335.105 152.502 335.243 152.623 335.401 152.713C335.559 152.803 335.733 152.86 335.914 152.88C336.094 152.9 336.277 152.884 336.451 152.832C336.807 152.711 337.102 152.456 337.273 152.12C337.443 151.785 337.476 151.396 337.363 151.037Z" fill="#9A4A4D"/>
<path d="M328.483 140.054L330.749 138.49C330.655 138.331 330.528 138.194 330.378 138.087C330.228 137.98 330.057 137.905 329.876 137.868C329.695 137.831 329.509 137.832 329.328 137.872C329.148 137.911 328.978 137.987 328.829 138.096C328.532 138.317 328.331 138.643 328.267 139.007C328.203 139.371 328.28 139.745 328.483 140.054Z" fill="#263238"/>
<path d="M329.001 142.685C328.999 142.905 329.063 143.121 329.182 143.305C329.302 143.49 329.474 143.635 329.675 143.723C329.877 143.811 330.1 143.837 330.317 143.799C330.534 143.762 330.735 143.661 330.895 143.51C331.055 143.359 331.167 143.164 331.218 142.95C331.268 142.736 331.254 142.512 331.178 142.305C331.102 142.099 330.967 141.919 330.79 141.789C330.613 141.658 330.402 141.583 330.182 141.571C329.879 141.566 329.585 141.679 329.365 141.888C329.144 142.096 329.013 142.382 329.001 142.685Z" fill="#263238"/>
<path d="M334.281 142.042L334.108 148.781L330.566 147.686L334.281 142.042Z" fill="#9A4A4D"/>
<path d="M339.225 157.258C342.105 156.883 347.971 155.194 348.892 152.861C348.525 154.041 347.805 155.079 346.828 155.837C345.072 157.344 339.225 159.043 339.225 159.043V157.258Z" fill="#9A4A4D"/>
<path d="M292.368 184.752L324.864 193.306L334.464 233.645L303.561 224.669L292.368 184.752Z" fill="#00A4FF"/>
<path opacity="0.15" d="M306.537 211.44C306.24 212.266 304.454 214.55 300.672 214.368L300.211 212.698L306.537 211.44Z" fill="black"/>
<path opacity="0.15" d="M313.805 212.698C313.949 213.773 316.157 215.77 319.891 217.008C324.144 218.429 330.662 217.68 330.662 217.68L330.077 215.674L313.805 212.698Z" fill="black"/>
<path opacity="0.15" d="M301.881 190.589C301.881 190.589 301.766 190.032 301.613 189.35C301.459 188.669 303.379 188.63 305.875 189.283L310.675 190.521C313.171 191.174 315.321 192.259 315.475 192.941L315.744 194.179L301.881 190.589Z" fill="black"/>
<path d="M299.635 185.914C299.539 185.482 300.307 185.376 301.353 185.664L303.273 186.182C303.273 186.182 302.707 183.504 306.912 184.445C311.117 185.386 312.038 188.419 312.038 188.419L314.064 188.995C315.187 189.312 316.195 189.955 316.329 190.349L316.569 191.117L299.827 186.71C299.827 186.71 299.721 186.336 299.635 185.914Z" fill="#37474F"/>
<path d="M301.939 187.248C303.475 187.622 304.109 187.824 304.339 188.88C304.598 190.089 304.704 190.973 304.704 190.973L312.115 192.893C312.115 192.893 311.76 191.366 311.645 190.771C311.53 190.176 311.779 189.811 312.96 190.128L313.056 189.657L301.44 186.739L301.939 187.248Z" fill="#37474F"/>
<path d="M301.68 190.704C301.68 190.704 301.565 190.147 301.411 189.466C301.257 188.784 303.177 188.755 305.673 189.398L310.473 190.646C312.969 191.29 315.12 192.374 315.273 193.056L315.542 194.294L301.68 190.704Z" fill="#37474F"/>
<path d="M370.56 211.91L360.604 203.923C360.604 203.923 338.601 207.84 336.009 208.042C334.642 208.079 333.295 207.702 332.145 206.96C330.996 206.218 330.097 205.146 329.568 203.885C328.608 201.341 326.851 201.658 326.851 201.658C326.851 201.658 327.609 204.874 327.811 205.901C328.012 206.928 321.859 207.821 318.422 206.611C314.985 205.402 310.003 207.139 313.084 211.814C316.166 216.49 322.166 217.037 326.323 217.037C328.066 217.024 329.806 216.908 331.536 216.691C332.88 216.518 334.224 216.384 335.577 216.288C344.15 215.674 366.72 213.12 370.56 211.91Z" fill="#B16668"/>
<path d="M295.68 196.541L297.12 201.686C297.398 202.646 301.171 204.47 303.561 205.133C305.952 205.795 308.563 206.563 307.401 209.933C306.365 213.014 302.429 213.715 300.432 213.629C298.435 213.542 295.689 211.632 294.614 208.55C293.232 204.614 293.971 200.409 293.424 198.115C292.877 195.821 294.48 195.168 295.68 196.541Z" fill="#B16668"/>
<path d="M361.094 178.041C359.69 178.043 358.299 177.767 357.002 177.231C355.705 176.694 354.526 175.908 353.532 174.915C352.539 173.923 351.751 172.745 351.214 171.448C350.676 170.151 350.399 168.761 350.399 167.357V152.352C353.232 152.354 355.949 153.481 357.952 155.484C359.955 157.487 361.082 160.204 361.084 163.037L361.094 178.041Z" fill="#263238"/>
</svg>
