<svg width="49" height="16" viewBox="0 0 49 16" fill="none" xmlns="http://www.w3.org/2000/svg">
<path d="M12.3856 4.70959L12.0489 5.04628L11.5777 4.57512C11.5087 4.50606 11.415 4.46725 11.3173 4.46725C11.2197 4.46725 11.126 4.50606 11.0569 4.57512C10.9878 4.64419 10.949 4.73786 10.949 4.83554C10.949 4.93321 10.9878 5.02688 11.0569 5.09594L11.5281 5.56746L11.24 5.85555L10.7685 5.38403C10.6994 5.31497 10.6057 5.27616 10.5081 5.27616C10.4104 5.27616 10.3167 5.31497 10.2477 5.38403C10.1786 5.4531 10.1398 5.54678 10.1398 5.64445C10.1398 5.74213 10.1786 5.83579 10.2477 5.90486L10.7188 6.37637L10.4307 6.66446L9.9592 6.19295C9.89013 6.12388 9.79648 6.08509 9.69881 6.08509C9.60113 6.08509 9.50746 6.12388 9.43839 6.19295C9.36932 6.26201 9.33051 6.35569 9.33051 6.45336C9.33051 6.55104 9.36932 6.6447 9.43839 6.71377L9.90955 7.18528L9.62146 7.47337L9.1503 7.00186C9.11612 6.96759 9.07554 6.9404 9.03085 6.92181C8.98617 6.90323 8.93826 6.89363 8.88986 6.89357C8.84146 6.8935 8.79352 6.90297 8.74878 6.92142C8.70405 6.93988 8.66339 6.96698 8.62912 7.00116C8.59485 7.03533 8.56765 7.07591 8.54906 7.1206C8.53048 7.16529 8.52089 7.2132 8.52083 7.26159C8.52076 7.30999 8.53021 7.35792 8.54867 7.40266C8.56713 7.4474 8.59423 7.48807 8.62841 7.52234L9.09956 7.99384L8.55283 8.54057L6.61783 6.60556L10.4495 2.77387C10.4863 2.73888 10.5352 2.71937 10.5859 2.71937C10.6367 2.71937 10.6855 2.73888 10.7223 2.77387L12.3845 4.43605C12.4206 4.47228 12.4408 4.52133 12.4408 4.57246C12.4408 4.62359 12.4206 4.67265 12.3845 4.70888L12.3856 4.70959ZM12.7759 3.78466L12.9859 3.57462C13.094 3.46638 13.1548 3.31963 13.1548 3.16662C13.1548 3.01361 13.094 2.86686 12.9859 2.75862L12.85 2.62274L15.0937 0.379065C15.1146 0.358625 15.1312 0.334238 15.1426 0.307323C15.154 0.280409 15.16 0.251498 15.1602 0.222265C15.1603 0.193031 15.1547 0.164062 15.1436 0.137022C15.1325 0.109982 15.1161 0.0854111 15.0954 0.0647394C15.0748 0.0440677 15.0502 0.0277027 15.0232 0.0165908C14.9961 0.00547882 14.9671 -0.000159948 14.9379 3.45215e-06C14.9087 0.000166852 14.8798 0.00613004 14.8528 0.0175436C14.8259 0.0289571 14.8015 0.0455919 14.7811 0.0664934L12.5374 2.31016L12.4016 2.17428C12.2933 2.06613 12.1466 2.00538 11.9935 2.00538C11.8405 2.00538 11.6938 2.06613 11.5856 2.17428L11.3759 2.38396L11.2446 2.25269C11.0704 2.07885 10.8343 1.98121 10.5882 1.98121C10.3421 1.98121 10.1061 2.07885 9.93189 2.25269L6.09276 6.09041C5.96702 5.99196 5.8095 5.94311 5.65012 5.95311C5.49074 5.96312 5.34058 6.0313 5.22814 6.1447C5.10484 6.26817 5.03559 6.43551 5.03559 6.61C5.03559 6.78449 5.10484 6.95184 5.22814 7.0753L6.01965 7.86683L1.15661 12.7299L0.628693 12.2023C0.559627 12.1333 0.465951 12.0945 0.368277 12.0945C0.270603 12.0945 0.176927 12.1333 0.107861 12.2023C0.0387949 12.2714 0 12.3651 0 12.4627C0 12.5604 0.0387949 12.6541 0.107861 12.7231L2.43667 15.0523C2.47086 15.0865 2.51147 15.1136 2.55615 15.1322C2.60084 15.1507 2.64872 15.1602 2.69708 15.1602C2.74545 15.1602 2.79335 15.1507 2.83803 15.1322C2.88271 15.1136 2.9233 15.0865 2.9575 15.0523C2.9917 15.0181 3.01883 14.9775 3.03734 14.9328C3.05585 14.8882 3.06536 14.8403 3.06536 14.7919C3.06536 14.7435 3.05585 14.6957 3.03734 14.651C3.01883 14.6063 2.9917 14.5657 2.9575 14.5315L2.42993 14.0039L7.293 9.14086L8.08451 9.9324C8.20225 10.0511 8.36085 10.1204 8.52793 10.1261C8.69501 10.1319 8.85799 10.0737 8.9836 9.96334C9.10922 9.85303 9.18802 9.69893 9.20389 9.53251C9.21977 9.36608 9.17154 9.19986 9.06905 9.06778L11.4997 6.63715L12.3079 5.82894L12.9046 5.23218C13.0787 5.05773 13.1764 4.82137 13.1764 4.57495C13.1764 4.32853 13.0787 4.09216 12.9046 3.9177L12.7734 3.78643L12.7759 3.78466Z" fill="white"/>
<path d="M12.993 8.03075C12.9668 7.39068 12.8499 6.75758 12.6457 6.15039L11.4788 7.40741C11.5345 7.6111 11.568 7.82022 11.5788 8.03112C11.5774 9.26804 11.0854 10.4539 10.2108 11.3285C9.33617 12.2032 8.15031 12.6951 6.91339 12.6965C6.18728 12.6969 5.46869 12.5495 4.80135 12.2634L3.77246 13.3249C4.73787 13.8421 5.81637 14.1122 6.91162 14.1111C8.52392 14.1098 10.0698 13.4688 11.21 12.3288C12.3501 11.1888 12.9914 9.64305 12.993 8.03075Z" fill="white"/>
<path d="M1.86573 11.4149L2.87864 10.3679C2.46675 9.65916 2.24906 8.85428 2.2475 8.03451C2.24594 7.21473 2.46057 6.40905 2.86976 5.6987C3.27894 4.98835 3.86821 4.39845 4.57812 3.98851C5.28804 3.57856 6.0935 3.36307 6.91327 3.36375C7.28665 3.37692 7.65802 3.42442 8.02269 3.50567L9.1832 2.37496C8.45582 2.10574 7.68808 1.9618 6.91258 1.94922C5.81071 1.94872 4.72941 2.24782 3.78444 2.81452C2.83947 3.38122 2.06637 4.1942 1.54786 5.16645C1.02936 6.1387 0.784959 7.23364 0.840825 8.3341C0.896691 9.43455 1.25071 10.4991 1.86501 11.4139L1.86573 11.4149Z" fill="white"/>
<path d="M23.7819 9.821C23.8304 9.82011 23.8786 9.82955 23.9232 9.84871C23.9677 9.86786 24.0077 9.89629 24.0405 9.9321L24.7741 10.7149C24.4188 11.1702 23.956 11.5303 23.4272 11.7627C22.8213 12.0145 22.1693 12.1364 21.5133 12.1202C20.8944 12.13 20.28 12.0137 19.7076 11.7783C19.1906 11.5622 18.7261 11.2374 18.3456 10.826C17.9638 10.4066 17.6702 9.9147 17.4824 9.37955C17.143 8.38188 17.0887 7.30931 17.3256 6.28246C17.4165 5.89657 17.5586 5.52455 17.748 5.17624C17.9295 4.84384 18.1544 4.537 18.4168 4.26382C18.6778 3.99218 18.9756 3.75849 19.3014 3.56955C19.6383 3.37508 20.0001 3.2277 20.377 3.13156C20.783 3.02877 21.2004 2.97803 21.6192 2.98056C21.9325 2.97913 22.2452 3.00799 22.553 3.06676C22.8343 3.1207 23.1097 3.2013 23.3757 3.30745C23.6235 3.40644 23.8601 3.53134 24.0816 3.68006C24.2904 3.82043 24.4853 3.98045 24.6636 4.15795L24.0411 5.00845C24.0024 5.06359 23.9545 5.11156 23.8993 5.1502C23.8296 5.19487 23.7477 5.21652 23.665 5.2121C23.557 5.209 23.4527 5.17241 23.3665 5.10738C23.2658 5.03757 23.1425 4.96043 22.9967 4.87596C22.8231 4.77866 22.6391 4.70104 22.4483 4.64453C22.1768 4.56788 21.8954 4.53258 21.6134 4.53981C21.2599 4.53561 20.9095 4.60475 20.5841 4.74288C20.2752 4.87603 20.0003 5.07716 19.7799 5.33129C19.5446 5.60849 19.3676 5.9302 19.2592 6.27726C19.1301 6.68997 19.0676 7.12063 19.0741 7.55301C19.067 7.98963 19.1347 8.42423 19.2742 8.83801C19.3928 9.18837 19.5792 9.51197 19.8227 9.79033C20.0474 10.0438 20.3251 10.2447 20.6362 10.3787C20.9506 10.5131 21.2894 10.5813 21.6313 10.5789C21.8217 10.5801 22.012 10.5699 22.2012 10.5483C22.3625 10.5297 22.5215 10.4946 22.6756 10.4435C22.8199 10.3952 22.9584 10.3312 23.0887 10.2526C23.2285 10.1669 23.3597 10.0679 23.4804 9.95698C23.5241 9.92093 23.5716 9.88988 23.6222 9.8644C23.6712 9.83751 23.726 9.82263 23.7819 9.821Z" fill="white"/>
<path d="M28.9091 12.0211H27.0479V3.07812H28.9091V12.0211Z" fill="white"/>
<path d="M39.8452 3.07866L36.2459 12.0216H34.568L30.9688 3.07866H32.4603C32.5999 3.07293 32.7374 3.11363 32.8514 3.19438C32.9517 3.26969 33.0295 3.37091 33.0765 3.48714L35.0118 8.63988C35.0855 8.83273 35.1584 9.04334 35.2305 9.27168C35.3026 9.50002 35.3694 9.73936 35.4307 9.98969C35.4839 9.73897 35.5418 9.49964 35.6043 9.27168C35.6668 9.04372 35.7356 8.83312 35.8108 8.63988L37.734 3.48714C37.7813 3.3762 37.8567 3.27948 37.9527 3.20653C38.0645 3.12002 38.2031 3.07541 38.3444 3.0804L39.8452 3.07866Z" fill="white"/>
<path d="M49.0005 12.0209H47.5645C47.4248 12.0267 47.287 11.986 47.1729 11.9052C47.0725 11.8299 46.9947 11.7287 46.9478 11.6124L46.3438 9.90505H42.7814L42.1774 11.6124C42.1305 11.7228 42.0562 11.8194 41.9616 11.893C41.8512 11.9797 41.7136 12.0244 41.5734 12.0191H40.127L43.6215 3.07617H45.5135L49.0005 12.0209ZM45.8942 8.62466L44.9268 5.88804C44.8693 5.74416 44.8088 5.57559 44.7451 5.38235C44.6815 5.18911 44.621 4.97967 44.5635 4.75402C44.506 4.98545 44.4454 5.1976 44.3818 5.39046C44.3181 5.58331 44.2576 5.75283 44.2001 5.89902L43.2385 8.62293L45.8942 8.62466Z" fill="white"/>
</svg>
